# xmcd CD database file
#
# Track frame offsets:
#	150
#	36266
#	71169
#	115659
#	150782
#	181466
#	216343
#	242886
#
# Disc length: 3665 seconds
#
# Revision: 1
# Processed by: cddbd v1.5.2PL0 Copyright (c) Steve Scherf et al.
# Submitted via: CDex 1.70beta2
#
DISCID=6b0e4f08
DTITLE=Grant Stewart - Plays Jazz Ballads
DYEAR=2012
DGENRE=Jazz
TTITLE0=01 I'm A Fool To Want You
TTITLE1=02 Luiza
TTITLE2=03 You Don't Know What Love Is
TTITLE3=04 Flamingo
TTITLE4=05 I've Grown Accustomed To Your Face 
TTITLE5=06 Everything Happens To Me
TTITLE6=07 Sophisticated Lady
TTITLE7=08 Smoke Gets In Your Eyes
EXTD=YEAR: 2012
EXTT0=
EXTT1=
EXTT2=
EXTT3=
EXTT4=
EXTT5=
EXTT6=
EXTT7=
PLAYORDER=
